<svg width="15" height="15" viewBox="0 0 15 15" fill="none" xmlns="http://www.w3.org/2000/svg">
<path d="M11.2494 0.003121L9.30428 0C7.11896 0 5.7067 1.44892 5.7067 3.69152V5.39356H3.75093C3.58192 5.39356 3.44507 5.53057 3.44507 5.69957V8.16563C3.44507 8.33463 3.58208 8.47149 3.75093 8.47149H5.7067V14.6941C5.7067 14.8631 5.84356 15 6.01256 15H8.56429C8.7333 15 8.87015 14.863 8.87015 14.6941V8.47149H11.1569C11.3259 8.47149 11.4628 8.33463 11.4628 8.16563L11.4637 5.69957C11.4637 5.61843 11.4314 5.54071 11.3741 5.48329C11.3169 5.42586 11.2388 5.39356 11.1577 5.39356H8.87015V3.95072C8.87015 3.25723 9.03541 2.90518 9.93878 2.90518L11.2491 2.90472C11.418 2.90472 11.5548 2.7677 11.5548 2.59886V0.308979C11.5548 0.140289 11.4181 0.0034331 11.2494 0.003121Z" fill="white"/>
</svg>
