<svg width="15" height="15" viewBox="0 0 15 15" fill="none" xmlns="http://www.w3.org/2000/svg">
<path d="M10.8604 0H4.13934C1.85691 0 0 1.857 0 4.13943V10.8605C0 13.143 1.85691 14.9999 4.13934 14.9999H10.8604C13.143 14.9999 14.9999 13.1429 14.9999 10.8605V4.13943C15 1.857 13.143 0 10.8604 0ZM13.6691 10.8605C13.6691 12.4092 12.4092 13.669 10.8605 13.669H4.13934C2.59075 13.6691 1.33086 12.4092 1.33086 10.8605V4.13943C1.33086 2.59084 2.59075 1.33086 4.13934 1.33086H10.8604C12.4091 1.33086 13.669 2.59084 13.669 4.13943V10.8605H13.6691Z" fill="white"/>
<path d="M7.49999 3.63501C5.36874 3.63501 3.63489 5.36886 3.63489 7.50011C3.63489 9.63127 5.36874 11.365 7.49999 11.365C9.63123 11.365 11.3651 9.63127 11.3651 7.50011C11.3651 5.36886 9.63123 3.63501 7.49999 3.63501ZM7.49999 10.0341C6.10267 10.0341 4.96575 8.89734 4.96575 7.50002C4.96575 6.10261 6.10258 4.96579 7.49999 4.96579C8.89739 4.96579 10.0342 6.10261 10.0342 7.50002C10.0342 8.89734 8.89731 10.0341 7.49999 10.0341Z" fill="white"/>
<path d="M11.5272 2.50659C11.2708 2.50659 11.0189 2.6104 10.8378 2.79228C10.6558 2.97328 10.5512 3.22526 10.5512 3.48256C10.5512 3.73906 10.6559 3.99095 10.8378 4.17283C11.0188 4.35383 11.2708 4.45853 11.5272 4.45853C11.7845 4.45853 12.0356 4.35383 12.2174 4.17283C12.3993 3.99095 12.5031 3.73897 12.5031 3.48256C12.5031 3.22526 12.3993 2.97328 12.2174 2.79228C12.0364 2.6104 11.7845 2.50659 11.5272 2.50659Z" fill="white"/>
</svg>
