<svg width="108" height="30" viewBox="0 0 108 30" fill="none" xmlns="http://www.w3.org/2000/svg">
<path d="M8.35457 16.2313C8.35457 19.273 8.33985 23.8383 8.41697 26.8263C8.50946 27.9258 9.78119 28.5317 11.3213 28.6633C11.3225 28.7133 11.3184 28.769 11.3182 28.8229C8.18778 28.7863 4.26909 28.7585 0.531254 28.7585C0.529234 28.7025 0.530043 28.7007 0.529916 28.6562C2.08143 28.2624 3.09996 27.8329 3.6572 26.9492C4.30678 25.9191 4.19247 24.3665 4.20551 23.0394C4.25653 17.8476 4.19559 12.6547 4.23907 7.46271C4.26228 4.69111 4.36541 1.95073 1.25917e-05 1.96347C1.25917e-05 1.68944 -0.000332207 1.87854 0.00258677 1.59131C5.17239 1.83742 10.8026 1.41002 15.9234 2.03403C19.983 2.5287 22.3305 5.89844 22.117 9.70936C21.9054 13.4884 19.1466 16.1919 14.9356 16.5257C12.7377 16.6823 10.5283 16.5835 8.35457 16.2313ZM8.33604 14.8194C11.6402 15.2839 14.6503 15.2578 16.2346 12.9319C17.6823 10.8066 17.4734 7.1753 15.7854 5.12335C14.1887 3.18231 11.5364 2.65971 8.43576 3.72856C8.43576 7.33638 8.33604 11.0427 8.33604 14.8194Z" fill="white"/>
<path d="M96.8289 28.7734C98.053 24.9139 99.0238 21.201 100.417 17.6438C101.809 14.0892 103.623 10.6902 105.407 6.8938C102.452 6.8938 99.9458 6.64291 97.5411 7.01282C96.5278 7.16868 95.4973 8.50872 94.9008 9.54214C94.3658 10.4689 94.4153 11.7135 93.5836 12.7286C93.9115 9.07082 94.2394 5.41303 94.5808 1.60522H108C106.491 6.713 104.887 11.7122 103.566 16.7812C102.826 19.625 102.599 22.5927 102.098 25.4942C101.762 27.4399 101.638 28.1457 101.491 28.8308C100.031 28.8237 99.2769 28.8061 96.8289 28.7734Z" fill="white"/>
<path d="M90.2657 17.5479H77.1912C76.8735 21.6758 78.7715 24.8453 82.0299 25.9079C85.097 26.9081 87.0691 25.957 89.863 22.13C90.1263 27.3126 84.8376 30.7862 79.5548 29.0785C75.4032 27.7365 73.015 22.7416 73.9728 17.6626C74.8847 12.8261 78.1759 9.92852 82.7718 9.91582C87.2947 9.90331 90.0557 12.553 90.2657 17.5479ZM77.0264 16.0208H85.8011C85.4061 12.8881 84.1242 11.4864 81.7441 11.4274C79.3341 11.3676 77.7757 12.8139 77.0264 16.0208Z" fill="white"/>
<path d="M67.3959 10.5637H72.4683C71.5394 11.9878 70.4194 13.3337 69.7129 14.8598C67.8273 18.933 66.1254 23.086 64.3358 27.2013C63.9956 27.9836 63.5878 28.7383 62.9687 30.0001C62.4716 29.3122 62.0171 28.5962 61.6076 27.8559C59.6939 23.5977 57.9033 19.2847 55.8778 15.0779C55.1122 13.4879 53.8291 12.1327 52.7911 10.6832H60.6257C58.1391 11.4604 58.7635 13.0666 59.5183 14.7252C60.8892 17.7374 62.2437 20.7567 63.9022 24.4315C65.6659 20.2788 67.2906 16.6869 68.6521 13.0033C68.8638 12.4306 67.8731 11.4395 67.3959 10.5637Z" fill="white"/>
<path d="M33.0498 28.9266H24.7265C27.3053 27.9534 27.085 25.8746 27.1233 23.7379C27.1714 21.0522 27.1552 18.362 27.1924 15.6743C27.2191 13.7414 27.1024 12.0272 23.9068 12.9324L24.1315 12.0975L30.5327 9.66846L31.0875 13.0167C31.968 12.1933 32.6934 11.3069 33.5509 10.8169C34.5338 10.2554 36.2412 9.97756 37.3621 10.4877C38.2568 10.8949 38.4068 11.9719 38.2477 12.9446C38.0484 14.1148 36.3161 13.9708 35.6844 13.684C32.7291 12.3423 31.0106 13.6593 30.9011 16.8951C30.8133 19.491 30.9129 22.098 30.9827 24.6792C31.0772 28.1729 31.7937 28.2961 33.0498 28.9266Z" fill="white"/>
<path d="M51.0815 28.9367H42.5441C45.4695 28.1088 44.9522 25.7936 44.9693 23.7482C44.9918 21.0585 44.9479 18.3683 44.9542 15.6783C44.9586 13.8092 44.8275 12.0842 41.7349 12.8237L41.9537 12.0823L48.6059 9.53125C48.6059 15.0115 48.5991 19.9036 48.6095 24.7956C48.6133 26.5586 48.6556 28.3232 51.0815 28.9367Z" fill="white"/>
<path d="M88.4571 0.25646C90.2164 1.66052 81.7998 9.15503 80.2489 8.75551C80.1717 8.71073 80.1678 8.53914 80.2489 8.44463C83.2218 4.98142 83.9858 2.4541 85.4454 0.908375C86.2921 0.0118009 87.592 -0.252379 88.4571 0.25646Z" fill="white"/>
<path d="M46.698 4.02814C47.7387 4.02814 48.5823 3.20948 48.5823 2.19962C48.5823 1.18975 47.7387 0.371094 46.698 0.371094C45.6574 0.371094 44.8138 1.18975 44.8138 2.19962C44.8138 3.20948 45.6574 4.02814 46.698 4.02814Z" fill="white"/>
</svg>
